<?xml version="1.0" encoding="UTF-8"?>
<!DOCTYPE svg PUBLIC "-//W3C//DTD SVG 1.1//EN" "http://www.w3.org/Graphics/SVG/1.1/DTD/svg11.dtd">
<svg xmlns="http://www.w3.org/2000/svg" version="1.1" width="294px" height="148px" style="shape-rendering:geometricPrecision; text-rendering:geometricPrecision; image-rendering:optimizeQuality; fill-rule:evenodd; clip-rule:evenodd" xmlns:xlink="http://www.w3.org/1999/xlink">
<g><path style="opacity:1" fill="#fdfdfd" d="M -0.5,-0.5 C 97.5,-0.5 195.5,-0.5 293.5,-0.5C 293.5,48.8333 293.5,98.1667 293.5,147.5C 195.5,147.5 97.5,147.5 -0.5,147.5C -0.5,98.1667 -0.5,48.8333 -0.5,-0.5 Z"/></g>
<g><path style="opacity:1" fill="#090909" d="M 88.5,20.5 C 95.3218,20.1239 101.988,20.9572 108.5,23C 110.18,23.3468 111.18,24.3468 111.5,26C 110.449,28.9962 109.116,31.8296 107.5,34.5C 101.803,31.6904 95.8029,30.8571 89.5,32C 86.8333,34 86.8333,36 89.5,38C 96.7536,39.5836 103.754,41.9169 110.5,45C 116.955,56.7833 113.621,64.7833 100.5,69C 90.7985,70.7604 81.7985,69.0937 73.5,64C 74.8835,60.6813 76.5502,57.5147 78.5,54.5C 85.7353,59.9925 93.2353,60.6592 101,56.5C 101.684,55.2161 101.517,54.0495 100.5,53C 94.958,50.9307 89.2913,49.264 83.5,48C 74.6362,43.3964 72.4696,36.563 77,27.5C 80.5136,24.4999 84.3469,22.1666 88.5,20.5 Z"/></g>
<g><path style="opacity:1" fill="#020202" d="M 126.5,21.5 C 130.833,21.5 135.167,21.5 139.5,21.5C 139.5,27.5 139.5,33.5 139.5,39.5C 145.5,39.5 151.5,39.5 157.5,39.5C 157.5,33.5 157.5,27.5 157.5,21.5C 161.833,21.5 166.167,21.5 170.5,21.5C 170.5,37.1667 170.5,52.8333 170.5,68.5C 166.167,68.5 161.833,68.5 157.5,68.5C 157.5,62.5 157.5,56.5 157.5,50.5C 151.5,50.5 145.5,50.5 139.5,50.5C 139.5,56.5 139.5,62.5 139.5,68.5C 135.167,68.5 130.833,68.5 126.5,68.5C 126.5,52.8333 126.5,37.1667 126.5,21.5 Z"/></g>
<g><path style="opacity:1" fill="#050505" d="M 186.5,21.5 C 195.839,21.3335 205.173,21.5002 214.5,22C 227.01,23.5296 230.843,30.0296 226,41.5C 224.745,42.2106 223.579,43.044 222.5,44C 230.519,47.9223 232.686,54.089 229,62.5C 227.048,64.8936 224.548,66.3936 221.5,67C 209.887,68.3872 198.221,68.8872 186.5,68.5C 186.5,52.8333 186.5,37.1667 186.5,21.5 Z"/></g>
<g><path style="opacity:1" fill="#f2f2f2" d="M 199.5,31.5 C 204.179,31.3342 208.845,31.5008 213.5,32C 216.462,35.4882 215.795,38.1549 211.5,40C 207.514,40.4988 203.514,40.6655 199.5,40.5C 199.5,37.5 199.5,34.5 199.5,31.5 Z"/></g>
<g><path style="opacity:1" fill="#fafafa" d="M 199.5,49.5 C 204.511,49.3341 209.511,49.5007 214.5,50C 218.065,52.1775 218.399,54.8442 215.5,58C 210.177,58.4994 204.844,58.666 199.5,58.5C 199.5,55.5 199.5,52.5 199.5,49.5 Z"/></g>
<g><path style="opacity:1" fill="#191919" d="M 53.5,121.5 C 51.5,121.5 49.5,121.5 47.5,121.5C 47.5,122.833 47.5,124.167 47.5,125.5C 49.7354,125.205 51.7354,125.539 53.5,126.5C 51.1667,126.5 48.8333,126.5 46.5,126.5C 46.5,123.167 46.5,119.833 46.5,116.5C 48.8568,116.337 51.1902,116.503 53.5,117C 51.8659,117.494 50.1992,117.66 48.5,117.5C 48.5,118.5 48.5,119.5 48.5,120.5C 50.4147,120.216 52.0813,120.549 53.5,121.5 Z"/></g>
<g><path style="opacity:1" fill="#181818" d="M 60.5,116.5 C 62.8568,116.337 65.1902,116.503 67.5,117C 71.4815,119.952 71.4815,122.952 67.5,126C 65.1902,126.497 62.8568,126.663 60.5,126.5C 60.5,123.167 60.5,119.833 60.5,116.5 Z"/></g>
<g><path style="opacity:1" fill="#444444" d="M 85.5,120.5 C 84.1667,121.167 84.1667,121.833 85.5,122.5C 85.762,123.978 85.4287,125.311 84.5,126.5C 83.1667,123.167 83.1667,119.833 84.5,116.5C 85.4287,117.689 85.762,119.022 85.5,120.5 Z"/></g>
<g><path style="opacity:1" fill="#242424" d="M 164.5,116.5 C 166.853,118.101 169.02,120.101 171,122.5C 171.192,120.423 171.692,118.423 172.5,116.5C 173.833,119.833 173.833,123.167 172.5,126.5C 170.343,124.208 168.176,121.875 166,119.5C 165.667,121.833 165.333,124.167 165,126.5C 164.502,123.183 164.335,119.85 164.5,116.5 Z"/></g>
<g><path style="opacity:1" fill="#353535" d="M 187.5,115.5 C 189.527,115.338 191.527,115.505 193.5,116C 195.18,116.347 196.18,117.347 196.5,119C 196.45,121.279 196.117,123.612 195.5,126C 192.854,126.497 190.187,126.664 187.5,126.5C 187.5,122.833 187.5,119.167 187.5,115.5 Z"/></g>
<g><path style="opacity:1" fill="#444444" d="M 204.5,120.5 C 203.167,121.167 203.167,121.833 204.5,122.5C 204.762,123.978 204.429,125.311 203.5,126.5C 202.167,123.167 202.167,119.833 203.5,116.5C 204.429,117.689 204.762,119.022 204.5,120.5 Z"/></g>
<g><path style="opacity:1" fill="#909090" d="M 218.5,116.5 C 218.56,115.957 218.893,115.624 219.5,115.5C 220.48,118.086 220.813,120.753 220.5,123.5C 219.833,121.167 219.167,118.833 218.5,116.5 Z"/></g>
<g><path style="opacity:1" fill="#eaeaea" d="M 61.5,117.5 C 68.0844,117.004 69.751,119.504 66.5,125C 64.8659,125.494 63.1992,125.66 61.5,125.5C 61.5,122.833 61.5,120.167 61.5,117.5 Z"/></g>
<g><path style="opacity:1" fill="#303030" d="M 128.5,116.5 C 135.626,116.363 135.959,117.03 129.5,118.5C 131.029,120.188 132.863,121.521 135,122.5C 135.86,125.478 134.693,126.812 131.5,126.5C 129.933,126.523 128.6,126.023 127.5,125C 129.425,125.135 131.425,125.302 133.5,125.5C 133.5,124.5 133.5,123.5 133.5,122.5C 128.735,122.687 127.069,120.687 128.5,116.5 Z"/></g>
<g><path style="opacity:1" fill="#f5f5f5" d="M 189.5,117.5 C 191.167,117.5 192.833,117.5 194.5,117.5C 194.5,118.5 194.5,119.5 194.5,120.5C 192.833,120.5 191.167,120.5 189.5,120.5C 189.5,119.5 189.5,118.5 189.5,117.5 Z"/></g>
<g><path style="opacity:1" fill="#303030" d="M 32.5,116.5 C 34.1454,117.479 35.4787,118.812 36.5,120.5C 37.8924,119.395 39.059,118.061 40,116.5C 40.1667,116.833 40.3333,117.167 40.5,117.5C 38.432,120.157 37.0987,123.157 36.5,126.5C 35.6953,122.9 34.362,119.567 32.5,116.5 Z"/></g>
<g><path style="opacity:1" fill="#242424" d="M 144.5,116.5 C 145.496,116.414 146.329,116.748 147,117.5C 148.354,120.505 149.354,123.505 150,126.5C 147,122.5 144,122.5 141,126.5C 141.644,123.072 142.81,119.739 144.5,116.5 Z"/></g>
<g><path style="opacity:1" fill="#303030" d="M 241.5,116.5 C 243.145,117.479 244.479,118.812 245.5,120.5C 246.892,119.395 248.059,118.061 249,116.5C 249.167,116.833 249.333,117.167 249.5,117.5C 247.432,120.157 246.099,123.157 245.5,126.5C 244.695,122.9 243.362,119.567 241.5,116.5 Z"/></g>
<g><path style="opacity:1" fill="#242424" d="M 258.5,116.5 C 259.496,116.414 260.329,116.748 261,117.5C 262.354,120.505 263.354,123.505 264,126.5C 261,122.5 258,122.5 255,126.5C 255.644,123.072 256.81,119.739 258.5,116.5 Z"/></g>
<g><path style="opacity:1" fill="#2b2b2b" d="M 270.5,116.5 C 273.168,118.336 275.334,120.669 277,123.5C 277.186,121.1 277.686,118.766 278.5,116.5C 280.769,128.502 278.603,129.502 272,119.5C 271.667,121.833 271.333,124.167 271,126.5C 270.502,123.183 270.335,119.85 270.5,116.5 Z"/></g>
<g><path style="opacity:1" fill="#e1e1e1" d="M 144.5,118.5 C 146.026,119.105 147.026,120.271 147.5,122C 146.056,122.781 144.723,122.614 143.5,121.5C 144.127,120.583 144.461,119.583 144.5,118.5 Z"/></g>
<g><path style="opacity:1" fill="#e1e1e1" d="M 258.5,118.5 C 260.026,119.105 261.026,120.271 261.5,122C 260.056,122.781 258.723,122.614 257.5,121.5C 258.127,120.583 258.461,119.583 258.5,118.5 Z"/></g>
<g><path style="opacity:1" fill="#0d0d0d" d="M 85.5,122.5 C 84.1667,121.833 84.1667,121.167 85.5,120.5C 87.5,120.5 89.5,120.5 91.5,120.5C 92.7879,122.092 92.7879,122.425 91.5,121.5C 89.2646,121.205 87.2646,121.539 85.5,122.5 Z"/></g>
<g><path style="opacity:1" fill="#0d0d0d" d="M 204.5,122.5 C 203.167,121.833 203.167,121.167 204.5,120.5C 206.5,120.5 208.5,120.5 210.5,120.5C 211.788,122.092 211.788,122.425 210.5,121.5C 208.265,121.205 206.265,121.539 204.5,122.5 Z"/></g>
<g><path style="opacity:1" fill="#2a2a2a" d="M 5.5,117.5 C 6.77504,119.73 8.77504,121.063 11.5,121.5C 12.7472,123.006 12.7472,124.506 11.5,126C 9.42131,126.808 7.42131,126.641 5.5,125.5C 6.53295,124.548 7.69962,124.548 9,125.5C 10.2798,125.387 11.1131,124.72 11.5,123.5C 9.88718,122.573 8.22052,121.739 6.5,121C 5.66337,119.989 5.33003,118.822 5.5,117.5 Z"/></g>
<g><path style="opacity:1" fill="#2a2a2a" d="M 115.5,117.5 C 116.775,119.73 118.775,121.063 121.5,121.5C 122.747,123.006 122.747,124.506 121.5,126C 119.421,126.808 117.421,126.641 115.5,125.5C 116.533,124.548 117.7,124.548 119,125.5C 120.28,125.387 121.113,124.72 121.5,123.5C 119.887,122.573 118.221,121.739 116.5,121C 115.663,119.989 115.33,118.822 115.5,117.5 Z"/></g>
<g><path style="opacity:1" fill="#898989" d="M 53.5,121.5 C 51.9581,122.163 50.2914,122.83 48.5,123.5C 50.5,124.167 52.5,124.833 54.5,125.5C 54.3764,126.107 54.0431,126.44 53.5,126.5C 51.7354,125.539 49.7354,125.205 47.5,125.5C 47.5,124.167 47.5,122.833 47.5,121.5C 49.5,121.5 51.5,121.5 53.5,121.5 Z"/></g>
<g><path style="opacity:1" fill="#d8d8d8" d="M 189.5,121.5 C 191.977,121.051 193.977,121.717 195.5,123.5C 193.977,125.283 191.977,125.949 189.5,125.5C 189.5,124.167 189.5,122.833 189.5,121.5 Z"/></g>
<g><path style="opacity:1" fill="#282828" d="M 21.5,118.5 C 21.7058,116.451 22.5391,116.117 24,117.5C 25.8317,120.328 26.8317,123.328 27,126.5C 25.1521,124.047 22.6521,123.047 19.5,123.5C 19.719,124.675 19.3857,125.675 18.5,126.5C 18.2824,123.563 19.2824,120.896 21.5,118.5 Z"/></g>
<g><path style="opacity:1" fill="#e1e1e1" d="M 21.5,118.5 C 23.1207,118.787 24.1207,119.787 24.5,121.5C 23.277,122.614 21.9437,122.781 20.5,122C 21.3366,120.989 21.67,119.822 21.5,118.5 Z"/></g>
<g><path style="opacity:1" fill="#262626" d="M 101.5,117.5 C 107.842,115.335 110.342,117.668 109,124.5C 104.154,127.836 100.654,126.836 98.5,121.5C 98.5613,119.347 99.5613,118.014 101.5,117.5 Z"/></g>
<g><path style="opacity:1" fill="#ebebeb" d="M 101.5,117.5 C 106.501,116.671 108.668,118.671 108,123.5C 101.684,126.356 99.5176,124.356 101.5,117.5 Z"/></g>
<g><path style="opacity:1" fill="#2b2b2b" d="M 218.5,116.5 C 219.167,118.833 219.833,121.167 220.5,123.5C 221.585,125.582 223.085,125.916 225,124.5C 226.328,113.833 226.995,113.833 227,124.5C 224.333,127.167 221.667,127.167 219,124.5C 218.503,121.854 218.336,119.187 218.5,116.5 Z"/></g>
</svg>
